<?xml version="1.0" encoding="UTF-8"?>
<svg id="uuid-e00db82a-5109-48c0-adbc-97cf53b40e98" data-name="Layer 1" xmlns="http://www.w3.org/2000/svg" viewBox="0 0 800 800">
  <defs>
    <style>
      .uuid-f32c0ba9-0137-4269-90b8-109f8412a8cd {
        fill: #c01e24;
      }
    </style>
  </defs>
  <path class="uuid-f32c0ba9-0137-4269-90b8-109f8412a8cd" d="m398.93,418.75c-9.48-71.21-90.34-65.77-102-121.59-7.46,92.05,78.37,75.41,98.27,136.98-21.46-56.75-107.75-55.66-121.12-107.6-8.09,81.94,74.17,77.74,109.62,119.26-34.67-35.76-113.04-39.81-126.41-81.01-11.51,90.49,132.48,59.71,141.65,136.05,9.33-76.34,153.16-45.56,141.8-136.05-13.37,41.2-91.74,45.25-126.41,81.01,35.3-41.52,117.7-37.32,109.46-119.26-13.37,51.93-99.67,50.84-121.12,107.6,19.9-61.57,105.89-44.94,98.27-136.98-11.66,55.82-92.52,50.38-102,121.59h0Z"/>
</svg>