<svg id="logosandtypes_com" data-name="logosandtypes com" xmlns="http://www.w3.org/2000/svg" viewBox="0 0 150 150"><defs><style>.cls-1{fill:none;}.cls-2{fill:#ff6a3e;}</style></defs><path class="cls-1" d="M0,.2H150v150H0Z" transform="translate(0 -0.2)"/><path class="cls-2" d="M.54.37,113.51,120s3.85,2.71,6.79-.45a5,5,0,0,0,.68-6.34L.54.37Z" transform="translate(0 -0.2)"/><path class="cls-2" d="M36.31,11.69l86,92.74s3.85,2.71,6.79-.45a5,5,0,0,0,.68-6.34L36.31,11.69Z" transform="translate(0 -0.2)"/><path class="cls-2" d="M11.18,35.89l86,92.74s3.85,2.72,6.79-.45a5,5,0,0,0,.68-6.33l-93.5-86Z" transform="translate(0 -0.2)"/><path class="cls-2" d="M66.55,21.41l60.1,64.8s2.69,1.89,4.75-.32a3.5,3.5,0,0,0,.47-4.42L66.55,21.41Z" transform="translate(0 -0.2)"/><path class="cls-2" d="M19.46,63.94l60.1,64.79s2.69,1.9,4.75-.31a3.52,3.52,0,0,0,.47-4.43l-65.32-60Z" transform="translate(0 -0.2)"/><path class="cls-2" d="M97.44,35.44l27.24,29.45a1.9,1.9,0,0,0,2.34-.14,1.58,1.58,0,0,0,.24-2.08L97.44,35.44Z" transform="translate(0 -0.2)"/><path class="cls-2" d="M34.5,93.8l27.24,29.45a1.91,1.91,0,0,0,2.35-.14,1.59,1.59,0,0,0,.23-2.08L34.5,93.8Z" transform="translate(0 -0.2)"/></svg>
